PathFileType	4	(X/Y/Z)	s09c0403.trc
DataRate	CameraRate	NumFrames	NumMarkers	Units	OrigDataRate	OrigDataStartFrame	OrigNumFrames
200	200	4	50	mm	200	0	2000
Frame#	Time	racr			lacr			c7			jug			rlel			rdr			llel			ldr			s2			lic			ric			lasi			rasi			rpsi			lpsi			rgt			lgt			rth1			rth2			rth3			rth4			rlfc			rmfc			rsh1			rsh2			rsh3			rsh4			rlmal			rmmal			rcal			rtoe			rmt5			lth1			lth2			lth4			lth3			llfc			lmfc			llmal			lmmal			lcal			lmt5			lsh1			lsh2			lsh3			lsh4			ltoe			SBIKE			LBIKE			RBIKE			
		X1	Y1	Z1	X2	Y2	Z2	X3	Y3	Z3	X4	Y4	Z4	X5	Y5	Z5	X6	Y6	Z6	X7	Y7	Z7	X8	Y8	Z8	X9	Y9	Z9	X10	Y10	Z10	X11	Y11	Z11	X12	Y12	Z12	X13	Y13	Z13	X14	Y14	Z14	X15	Y15	Z15	X16	Y16	Z16	X17	Y17	Z17	X18	Y18	Z18	X19	Y19	Z19	X20	Y20	Z20	X21	Y21	Z21	X22	Y22	Z22	X23	Y23	Z23	X24	Y24	Z24	X25	Y25	Z25	X26	Y26	Z26	X27	Y27	Z27	X28	Y28	Z28	X29	Y29	Z29	X30	Y30	Z30	X31	Y31	Z31	X32	Y32	Z32	X33	Y33	Z33	X34	Y34	Z34	X35	Y35	Z35	X36	Y36	Z36	X37	Y37	Z37	X38	Y38	Z38	X39	Y39	Z39	X40	Y40	Z40	X41	Y41	Z41	X42	Y42	Z42	X43	Y43	Z43	X44	Y44	Z44	X45	Y45	Z45	X46	Y46	Z46	X47	Y47	Z47	X48	Y48	Z48	X49	Y49	Z49	X50	Y50	Z50	
0	0.0000	479.028396	1338.771525	-118.649630	471.446847	1322.927510	-422.062934	422.639430	1357.740702	-266.070633	445.085824	1219.933841	-263.121855	520.589026	1099.401423	-17.356366	692.833672	910.617936	-60.339820	468.200026	1050.441918	-510.478601	672.407306	908.650471	-448.106838	-26.640163	1118.693345	-236.629312	103.436774	1130.045654	-386.501717	128.203558	1122.178802	-95.321038	153.776431	1079.025053	-369.414546	173.604244	1070.511158	-118.341747	6.744941	1149.415583	-177.723106	-5.323570	1158.653187	-284.763421	106.874316	977.035102	-50.640558	84.950311	1005.946291	-435.472520	187.799707	860.248518	-56.046784	253.176076	802.661913	-63.594676	276.040735	716.868505	-71.732051	279.519879	818.942679	-83.581989	308.742439	623.170599	-101.664443	290.884429	606.607215	-197.086136	236.209706	548.306130	-68.842690	206.598203	464.192727	-81.396074	140.148029	406.993641	-79.795453	227.786650	453.184504	-113.006329	80.300873	326.098748	-79.641623	85.343798	336.812559	-158.011374	-8.409837	315.938538	-117.564065	239.203632	220.296124	-128.275761	158.548333	231.910776	-60.627824	213.448330	949.628211	-428.870682	298.224017	946.420322	-420.587737	309.902503	980.153139	-407.478074	374.350831	897.687462	-416.462821	456.458338	842.516455	-396.316228	470.838488	829.662913	-297.345720	340.399881	499.228133	-410.221389	354.447264	507.959767	-337.218079	265.233518	465.076050	-374.036972	432.568505	414.801633	-434.068313	427.926445	748.503387	-419.626650	421.847911	661.838735	-411.663075	371.877389	588.392216	-413.253279	444.759511	656.139622	-380.153921	524.615445	428.675448	-365.080552	-65.219878	851.062859	-240.933404	21.211552	83.545986	-442.331047	21.208967	83.800667	-43.882200	
1	0.0050	479.039490	1338.734364	-118.620390	471.460535	1322.912319	-422.035089	422.675832	1357.767970	-266.000550	445.049351	1219.924100	-263.111657	520.576438	1099.371464	-17.327105	692.819831	910.636974	-60.367079	468.194363	1050.456163	-510.443513	672.418585	908.640951	-448.081022	-26.632177	1118.684406	-236.641097	103.397218	1130.044632	-386.520564	128.201402	1122.207388	-95.311892	153.770639	1079.037352	-369.426938	173.642789	1070.544427	-118.314533	6.759149	1149.417658	-177.723150	-5.309234	1158.548267	-284.738411	106.900425	977.032593	-50.643229	84.975073	1005.943583	-435.481778	187.862482	860.257121	-56.048005	253.204888	802.681864	-63.572527	276.100848	716.894598	-71.719533	279.595373	818.942345	-83.568453	308.790580	623.193805	-101.633812	290.885424	606.620984	-197.121829	236.260263	548.334315	-68.822987	206.633182	464.223927	-81.378729	140.203553	406.994723	-79.789530	227.805438	453.199592	-113.013733	80.318206	326.163117	-79.625961	85.394074	336.853888	-158.008167	-8.395288	315.996546	-117.541187	239.221072	220.319485	-128.244108	158.535345	231.912409	-60.621166	213.455756	949.585081	-428.861816	298.242008	946.354717	-420.559128	309.931061	980.095183	-407.466384	374.362996	897.638203	-416.439075	456.442734	842.486106	-396.296998	470.878595	829.633970	-297.300036	340.403815	499.197599	-410.215790	354.469856	507.930846	-337.176219	265.237268	465.020953	-374.029787	432.572770	414.778842	-434.053211	427.927323	748.462648	-419.613337	421.848584	661.802476	-411.664575	371.865333	588.362436	-413.250894	444.771728	656.068916	-380.114468	524.631867	428.677932	-365.088210	-65.213237	851.058754	-240.939814	21.224538	83.570306	-442.328780	21.242825	83.782469	-43.873389	
2	0.0100	479.021408	1338.724547	-118.590736	471.461777	1322.929940	-422.017308	422.702547	1357.787835	-265.963597	445.021721	1219.900718	-263.088727	520.571970	1099.371158	-17.301930	692.826712	910.632656	-60.335495	468.174671	1050.461939	-510.427362	672.415098	908.640437	-448.066557	-26.625729	1118.676210	-236.647956	103.405845	1130.061867	-386.561739	128.193792	1122.220623	-95.290611	153.762164	1079.050811	-369.413944	173.626687	1070.567588	-118.277289	6.749967	1149.422382	-177.738608	-5.293512	1158.546872	-284.709378	106.900358	977.046295	-50.630829	85.002294	1005.924912	-435.479431	187.878370	860.257594	-56.054251	253.231589	802.691212	-63.568683	276.130743	716.917786	-71.696205	279.618839	818.965486	-83.564789	308.841628	623.209587	-101.619725	290.920698	606.632109	-197.114941	236.299582	548.338539	-68.817850	206.657662	464.240823	-81.357822	140.220029	407.037831	-79.782537	227.819057	453.215511	-113.031137	80.356179	326.191989	-79.599515	85.432362	336.871386	-158.015987	-8.351458	316.037118	-117.535357	239.216899	220.326617	-128.228823	158.529094	231.942155	-60.630938	213.486018	949.558036	-428.839061	298.259516	946.324057	-420.542291	309.942989	980.055229	-407.456638	374.376894	897.590252	-416.404132	456.445437	842.448326	-396.271423	470.883943	829.583791	-297.252885	340.401301	499.143671	-410.191675	354.480916	507.900353	-337.140648	265.241179	464.969080	-374.039487	432.586417	414.759195	-434.063411	427.921394	748.423991	-419.596859	421.829196	661.767729	-411.646648	371.844551	588.330456	-413.250156	444.762146	656.025032	-380.114368	524.634912	428.664321	-365.075694	-65.209493	851.055930	-240.921373	21.236876	83.557676	-442.324043	21.261680	83.779954	-43.862974	
3	0.0150	478.874773	1339.517209	-118.414428	471.480263	1322.924605	-422.002149	422.649787	1357.456825	-265.792721	444.978172	1219.896323	-263.088647	520.399024	1099.681055	-17.115762	692.847522	910.636636	-60.330237	468.338725	1050.315655	-509.989303	672.412121	908.654352	-448.092136	-25.227454	1119.565120	-234.471739	103.408881	1130.070937	-386.546439	128.192352	1122.246652	-95.279116	153.760653	1079.072299	-369.412531	173.534049	1070.416623	-118.211756	6.749385	1149.425010	-177.762250	-5.006599	1158.475976	-284.698319	107.172335	976.979834	-50.400089	85.020025	1005.913432	-435.481652	188.056003	860.474530	-55.616594	253.245186	802.704705	-63.541692	276.150425	716.941540	-71.691629	279.359055	819.023650	-83.768606	309.155462	622.993424	-101.482951	291.153321	606.486903	-197.090883	236.320693	548.369398	-68.802930	206.866408	464.209755	-81.130437	140.419998	406.926260	-79.819895	227.854502	453.249679	-112.997906	80.362925	326.145714	-79.287051	85.463170	336.885914	-158.002716	-8.339751	316.115397	-117.534746	239.238085	220.334605	-128.213099	158.533822	231.957972	-60.627609	213.525132	949.523716	-428.821410	298.292620	946.301572	-420.527113	309.771795	980.452215	-407.476297	374.376704	897.388664	-416.450400	456.424549	842.306181	-396.243748	470.896841	829.550396	-297.231314	340.099877	499.634960	-410.488544	354.845670	507.360749	-336.554749	265.497729	464.781236	-373.776941	432.577441	414.739862	-434.056990	427.923737	748.399915	-419.583219	421.803534	661.644948	-411.713748	371.838043	588.299852	-413.235406	444.968909	655.797445	-380.007635	524.633518	428.675020	-365.093604	-65.215871	851.065999	-240.921782	21.236329	83.559758	-442.314527	21.268188	83.784022	-43.852978	
